<svg class="main-svg" xmlns="http://www.w3.org/2000/svg" xmlns:xlink="http://www.w3.org/1999/xlink" width="371" height="336" style="" viewBox="0 0 371 336"><rect x="0" y="0" width="371" height="336" style="fill: rgb(255, 255, 255); fill-opacity: 1;"/><defs id="defs-74c221"><g class="clips"><clipPath id="clip74c221xyplot" class="plotclip"><rect width="251" height="216"/></clipPath><clipPath class="axesclip" id="clip74c221x"><rect x="60" y="0" width="251" height="336"/></clipPath><clipPath class="axesclip" id="clip74c221y"><rect x="0" y="60" width="371" height="216"/></clipPath><clipPath class="axesclip" id="clip74c221xy"><rect x="60" y="60" width="251" height="216"/></clipPath></g><g class="gradients"/></defs><g class="bglayer"/><g class="layer-below"><g class="imagelayer"/><g class="shapelayer"/></g><g class="cartesianlayer"><g class="subplot xy"><g class="layer-subplot"><g class="shapelayer"/><g class="imagelayer"/></g><g class="gridlayer"><g class="x"><path class="xgrid crisp" transform="translate(139.92000000000002,0)" d="M0,60v216" style="stroke: rgb(238, 238, 238); stroke-opacity: 1; stroke-width: 1px;"/><path class="xgrid crisp" transform="translate(219.85,0)" d="M0,60v216" style="stroke: rgb(238, 238, 238); stroke-opacity: 1; stroke-width: 1px;"/><path class="xgrid crisp" transform="translate(299.77,0)" d="M0,60v216" style="stroke: rgb(238, 238, 238); stroke-opacity: 1; stroke-width: 1px;"/></g><g class="y"><path class="ygrid crisp" transform="translate(0,223.31)" d="M60,0h251" style="stroke: rgb(238, 238, 238); stroke-opacity: 1; stroke-width: 1px;"/><path class="ygrid crisp" transform="translate(0,181.41)" d="M60,0h251" style="stroke: rgb(238, 238, 238); stroke-opacity: 1; stroke-width: 1px;"/><path class="ygrid crisp" transform="translate(0,139.51999999999998)" d="M60,0h251" style="stroke: rgb(238, 238, 238); stroke-opacity: 1; stroke-width: 1px;"/><path class="ygrid crisp" transform="translate(0,97.62)" d="M60,0h251" style="stroke: rgb(238, 238, 238); stroke-opacity: 1; stroke-width: 1px;"/></g></g><g class="zerolinelayer"><path class="xzl zl crisp" transform="translate(60,0)" d="M0,60v216" style="stroke: rgb(68, 68, 68); stroke-opacity: 1; stroke-width: 1px;"/><path class="yzl zl crisp" transform="translate(0,265.2)" d="M60,0h251" style="stroke: rgb(68, 68, 68); stroke-opacity: 1; stroke-width: 1px;"/></g><path class="xlines-below"/><path class="ylines-below"/><g class="overlines-below"/><g class="xaxislayer-below"/><g class="yaxislayer-below"/><g class="overaxes-below"/><g class="plot" transform="translate(60,60)" clip-path="url('#clip74c221xyplot')"><g class="scatterlayer mlayer"><g class="trace scatter trace1c1179" style="stroke-miterlimit: 2; opacity: 1;"><g class="fills"/><g class="errorbars"/><g class="lines"><path class="js-line" d="M0,205.2L0.01,10.8L0.75,40.31L0.76,40.67L1.43,36.7L1.49,44.3L1.51,40.13L1.52,39.93L1.53,38.7L2.01,46.36L2.27,42.23L2.28,42.07L2.62,39.05L2.83,50.75L3.03,42.71L3.04,41.95L3.09,50.28L3.32,40.58L3.79,44.68L3.8,44.56L3.9,41.34L4.12,52.32L4.55,43.77L4.56,43.94L4.83,41.89L5.23,55.15L5.31,50.38L5.32,49.89L5.48,55.26L5.53,45.87L6.07,52.89L6.08,52.57L6.29,60.12L6.35,48.62L6.83,52.1L6.84,52.63L6.94,50.72L7.21,63.52L7.59,56.74L7.6,56.51L7.89,51.54L8.25,64.47L8.35,57.57L8.36,57.47L8.64,54.87L9.05,66.37L9.11,61.64L9.12,61.65L9.48,67.88L9.82,57.97L9.87,66.7L9.88,66.98L10.06,71.76L10.41,59.17L10.63,64.83L10.64,64.73L10.7,59.24L11.24,72.76L11.39,65.6L11.4,65.48L11.49,63.8L11.54,76L12.15,70.47L12.16,70.48L12.34,64.71L12.71,75.86L12.91,69.63L12.92,69.54L13.19,64.97L13.56,79.5L13.67,74.85L13.68,75.04L13.86,80.31L14.19,65.37L14.43,74.77L14.44,74.08L14.57,67.25L15.19,82.04L15.19,80.72L15.2,80.42L15.48,69.4L15.68,83.52L15.95,76.07L15.96,76.11L16.07,84.76L16.3,73.86L16.71,79.61L16.72,79.39L17.11,76.2L17.2,85.77L17.47,81.88L17.48,82.29L17.55,75.26L17.71,90.25L18.23,80.62L18.24,80.88L18.45,77.74L18.62,90.79L18.99,82.73L19,82.29L19.23,78.69L19.43,90.4L19.75,86.39L19.76,86.45L20.09,92.65L20.3,79.51L20.51,89.46L20.52,88.98L20.69,82.24L20.72,94.36L21.27,90.5L21.28,90.08L21.32,82.64L21.84,96.21L22.03,88.68L22.04,88.32L22.06,85.95L22.69,95.74L22.79,90.51L22.8,90.67L22.96,97.08L23.35,85.26L23.55,88.77L23.56,88.9L24.15,85.87L24.29,97.82L24.31,95.6L24.32,95.23L24.41,87.21L25.03,99.27L25.07,89.39L25.08,89.4L25.13,98.9L25.24,88.41L25.83,96.93L25.84,96.75L25.96,103.47L26.56,83.52L26.59,94.97L26.6,94.69L26.63,87.46L27.2,102.77L27.35,97.51L27.36,98.06L27.69,92.09L28.04,106.74L28.11,95.81L28.12,95.97L28.3,91.72L28.38,102.55L28.87,93.23L28.88,92.94L29.35,89.93L29.47,102.55L29.63,96.14L29.64,96L29.67,104.78L30.02,92.33L30.39,97.66L30.4,97.46L30.73,93.95L30.98,103.72L31.15,98.09L31.16,98.17L31.19,104.34L31.24,91.76L31.91,99.79L31.92,100.04L31.93,106.59L32.67,92.8L32.67,93.48L32.68,93.7L32.76,92.92L33.13,106.95L33.43,99.91L33.44,99.82L33.77,106.81L33.84,95.83L34.19,102.51L34.2,102.28L34.24,92.9L34.31,107.15L34.95,101.51L34.96,101.84L35.27,110.04L35.31,96.88L35.71,103.62L35.72,103.24L36.33,93.76L36.44,110.01L36.47,101.4L36.48,101.5L36.58,98.45L36.7,109.77L37.23,103.69L37.24,103.88L37.41,97.72L37.51,108.85L37.99,104.39L38,104.08L38.3,108.7L38.73,97.94L38.75,98.68L38.76,98.39L38.76,97.95L39.26,109.81L39.51,104.52L39.52,103.98L39.54,98.06L39.89,109.7L40.27,107.63L40.28,107.81L40.41,109.54L40.67,99.99L41.03,107.34L41.04,106.69L41.17,112.24L41.61,98.72L41.79,105.87L41.8,105.6L41.9,100.21L42.35,111.56L42.55,105.4L42.56,105.41L42.64,114.97L42.74,101.77L43.31,107.81L43.32,107.47L43.68,113.73L43.87,100.45L44.07,109.29L44.08,109.27L44.3,98.18L44.64,114.05L44.83,109.38L44.84,109.29L45.17,99.97L45.21,113.36L45.59,108.01L45.6,108.25L45.65,114.31L45.8,100.78L46.35,110.05L46.36,110.45L47.03,113.07L47.1,103.82L47.11,106.32L47.12,106.89L47.39,102.22L47.45,113.66L47.87,109.15L47.88,109.37L47.91,103.04L48.46,113.94L48.63,104.26L48.64,104.66L48.64,104.03L49.39,114.09L49.39,112.01L49.4,112.03L49.54,104.06L49.86,115.16L50.15,110.37L50.16,110.5L50.3,115.88L50.65,103.66L50.91,111.49L50.92,111.83L51.06,115.64L51.56,103.26L51.67,107.12L51.68,106.77L51.97,116.14L52.13,105.13L52.43,108.24L52.44,108.26L52.97,104L53.05,116.09L53.19,107.68L53.2,107.53L53.45,115.92L53.53,107.15L53.95,114.02L53.96,114.09L54.15,117.3L54.19,102.54L54.71,112.79L54.72,112.85L55.13,117.15L55.3,105.42L55.47,109.58L55.48,109.79L55.52,118.11L56.2,104.9L56.23,115.12L56.24,115.18L56.24,116.37L56.52,103.9L56.99,109.21L57,108.87L57.07,118.28L57.42,106.13L57.75,113.87L57.76,113.88L58.07,118.85L58.35,105.68L58.51,110.99L58.52,110.8L58.84,106.97L58.88,120.2L59.27,108.17L59.28,107.89L59.63,107.45L59.68,117.58L60.03,108.57L60.04,108.02L60.37,118.51L60.64,107.59L60.79,111.12L60.8,111.18L61.07,106.64L61.23,118.76L61.55,114.98L61.56,114.77L61.95,107.01L62.02,120.12L62.31,113.13L62.32,113.56L62.34,117.78L62.39,102.55L63.07,113.63L63.08,113.04L63.12,121.97L63.5,108.26L63.83,111.73L63.84,111.84L64.17,119.56L64.53,105.15L64.59,115.19L64.6,115.5L65.01,109.22L65.16,119.05L65.35,117.07L65.36,117.08L65.8,119.48L66.07,109.1L66.11,113.19L66.12,112.92L66.18,120.29L66.81,108.44L66.87,113.87L66.88,114.24L67.47,110L67.63,119.2L67.63,119.05L67.64,118.96L67.65,121.85L68.35,108.73L68.39,116.53L68.4,116.82L68.54,107.3L68.98,119.1L69.15,115.54L69.16,115.18L69.38,123.53L69.42,109.09L69.91,117.48L69.92,117.39L70.51,108.9L70.63,120.18L70.67,113L70.68,113.04L70.7,109.42L71.06,121.33L71.43,116.83L71.44,117.17L71.6,108.33L71.77,121.82L72.19,117.25L72.2,117.11L72.48,109.49L72.58,122.62L72.95,117.16L72.96,117.33L73.47,111.8L73.7,121.66L73.71,118.28L73.72,118.17L74.3,110.75L74.44,122.17L74.47,116L74.48,115.99L74.53,110.6L75.18,120.86L75.23,117.1L75.24,117.75L75.41,108.43L75.92,124.15L75.99,118.97L76,119.12L76.29,121.41L76.71,111.19L76.75,117.17L76.76,117.34L76.91,113.16L77,123.49L77.51,114.35L77.52,114.11L77.54,109.55L77.78,123L78.27,115.08L78.28,115.66L78.47,122.87L78.84,109.6L79.03,114.94L79.04,114.62L79.06,111.78L79.27,122.36L79.79,115.5L79.8,115.72L80.27,112.19L80.54,124.66L80.55,122.27L80.56,122.25L80.67,123.9L81.3,111.73L81.31,114.91L81.32,114.88L81.52,112.46L81.83,123.19L82.07,117.35L82.08,117.53L82.21,112.5L82.4,121.56L82.83,116.2L82.84,116.18L83.01,112.48L83.56,122.14L83.59,119.75L83.6,119.55L83.61,125.39L83.86,110.87L84.35,118.52L84.36,118.67L84.64,123.43L84.97,113.13L85.11,121.12L85.12,120.95L85.22,112.18L85.64,123.78L85.87,117.68L85.88,118.04L86.23,111.78L86.37,123.4L86.63,115.93L86.64,116.28L86.9,111.82L86.96,125.86L87.39,121.39L87.4,121.33L87.6,123.36L88.1,113.73L88.15,120.37L88.16,120.69L88.18,125.42L88.52,112.01L88.91,121.27L88.92,121.19L89.26,113.6L89.45,126.37L89.67,118.53L89.68,118.4L89.73,112.91L89.77,124.81L90.43,120.3L90.44,120.48L90.63,114.34L91.05,125.28L91.19,121.16L91.2,121.29L91.38,112.78L91.89,126.39L91.95,118.3L91.96,118.38L92.28,126.88L92.5,113.94L92.71,122.55L92.72,122.26L92.78,112.95L92.95,125.79L93.47,122.17L93.48,122.6L93.73,115.04L94.09,126.39L94.23,118.71L94.24,118.62L94.51,125.79L94.64,112.59L94.99,119.28L95,119.45L95.21,126.2L95.52,113.97L95.75,121.77L95.76,121L95.84,125.33L96.44,112.14L96.51,119.02L96.52,118.96L96.56,125.54L96.75,113.22L97.27,118.46L97.28,119.57L97.38,111.3L97.67,127.11L98.03,120.92L98.04,120.8L98.08,113.46L98.28,126.17L98.79,120.04L98.8,120L99.15,129.19L99.37,112.58L99.55,116.87L99.56,116.81L100.01,125.54L100.15,112.98L100.31,120.75L100.32,120.9L100.72,114.43L100.81,127.81L101.07,122.98L101.08,123.02L101.28,125.84L101.37,112.51L101.83,122.55L101.84,122.69L102.02,126.73L102.42,114.81L102.59,124.1L102.6,123.77L102.81,115.74L102.85,126.69L103.35,124.9L103.36,124.55L103.41,128.07L103.64,117.27L104.11,123.57L104.12,123.53L104.36,115.83L104.85,126.12L104.87,122.82L104.88,123.1L105.4,113.74L105.57,127.37L105.63,121.61L105.64,121.24L105.91,125.87L106.12,115.69L106.39,122.51L106.4,122.35L106.83,116.36L107.1,125.81L107.15,122.32L107.16,122.56L107.44,113.25L107.62,128.67L107.91,123.47L107.92,123.42L108.38,127.12L108.63,115.99L108.67,120.9L108.68,120.92L108.98,113.87L109.3,126.39L109.43,124.78L109.44,124.5L109.82,127.29L109.95,114.53L110.19,119.89L110.2,120.57L110.4,127.48L110.81,115.18L110.95,122.3L110.96,122.93L111.54,127.8L111.68,116.73L111.71,121.24L111.72,121.54L112,127.11L112.06,113.98L112.47,121.19L112.48,120.91L112.85,115.96L113.18,129.94L113.23,125.23L113.24,125.28L113.58,128.55L113.96,114.65L113.99,123.28L114,123.34L114.58,116.71L114.68,129L114.75,121.9L114.76,121.58L115.37,128.88L115.42,116.3L115.51,120.47L115.52,120.3L115.56,116.47L116.07,127.21L116.27,122.95L116.28,122.93L116.38,114.48L116.98,129.22L117.03,125.15L117.04,125L117.47,130.13L117.72,117.41L117.79,123.15L117.8,123.14L118.07,118.27L118.35,131.83L118.55,124.56L118.56,124.37L118.62,127.89L118.76,114.68L119.31,123.96L119.32,123.53L119.77,115.45L119.85,128.74L120.07,121.08L120.08,121.28L120.21,115.74L120.47,127.63L120.83,121.12L120.84,120.89L121.05,117.4L121.42,129.14L121.59,124.8L121.6,124.74L121.76,113.95L122.35,129.53L122.35,127.61L122.36,127.8L122.36,128.84L122.84,116.55L123.11,123.39L123.12,122.85L123.16,128.62L123.46,116.26L123.87,118.25L123.88,118.16L123.88,117.1L124.22,128.41L124.63,124.67L124.64,124.41L125.19,128.97L125.23,116.34L125.39,124.53L125.4,124.72L125.46,115.74L126.04,128.31L126.15,122.15L126.16,122.08L126.29,116.86L126.4,128.17L126.91,124.17L126.92,124.04L127.01,118.2L127.35,127.97L127.67,126.92L127.68,126.87L128.08,128.33L128.15,115.83L128.43,123.68L128.44,123.33L128.51,129.12L128.88,115.61L129.19,125.27L129.2,125.27L129.41,116.59L129.95,129.22L129.95,127.33L129.96,127.19L130.31,120.32L130.65,128L130.71,125.62L130.72,125.53L130.84,128.28L131.25,118.99L131.47,122.78L131.48,122.66L131.75,118.84L131.79,130.03L132.23,122.53L132.24,122.86L132.81,117.1L132.88,128.92L132.99,121.83L133,121.93L133.18,129.22L133.66,116.56L133.75,124.04L133.76,123.69L134.19,119.13L134.32,128.57L134.51,122.81L134.52,122.9L134.82,118.32L134.86,129.44L135.27,121.8L135.28,122L135.29,118.31L135.96,130.47L136.03,123.96L136.04,123.72L136.48,117.35L136.79,131.82L136.79,129.66L136.8,129.84L137.44,116.21L137.55,123.06L137.56,122.89L137.72,128.7L137.78,113.51L138.31,121.38L138.32,121.3L138.68,118.7L138.98,130.83L139.07,126.38L139.08,126.29L139.25,128.61L139.4,118.45L139.83,126.95L139.84,127.22L140.03,130.66L140.47,119.07L140.59,125.39L140.6,125.83L140.66,129.73L141.13,117.91L141.35,124.92L141.36,125.15L141.64,118.51L142.03,128.51L142.11,123.26L142.12,123.15L142.73,130.06L142.86,117.91L142.87,122.87L142.88,122.58L143.01,115.9L143.31,129.22L143.63,123.9L143.64,123.63L143.89,130.88L144.38,119.48L144.39,121.56L144.4,122.25L144.8,131.19L145.04,119.73L145.15,123.59L145.16,123.29L145.53,118.24L145.84,128.32L145.91,124.17L145.92,124.11L146.37,119L146.44,129.2L146.67,124.59L146.68,124.88L146.83,128.63L146.99,119.55L147.43,125.49L147.44,125.16L147.51,117.95L147.7,131.65L148.19,126.13L148.2,126.48L148.27,131.73L148.38,117.59L148.95,127.43L148.96,127.72L149.12,119.38L149.69,130.19L149.71,124.64L149.72,124.47L150.37,129.84L150.4,120.91L150.47,126.58L150.48,126.66L150.98,120.22L151.06,130.4L151.23,129.57L151.24,129.28L151.55,131.83L151.77,121.33L151.99,125.52L152,125.66L152.24,117.27L152.65,129.34L152.75,126.91L152.76,127.1L152.92,121.39L153.32,131.1L153.51,125.74L153.52,125.69L153.77,131.2L154.18,120.75L154.27,124.61L154.28,124.82L154.85,120.13L155.02,130.3L155.03,128.85L155.04,129.37L155.21,130.17L155.77,118.2L155.79,119.91L155.8,119.55L155.98,131.37L156.25,117.7L156.55,124.6L156.56,124.75L156.63,118.15L157.02,130.56L157.31,126.59L157.32,126.58L157.8,121.94L158.06,132.1L158.07,128.41L158.08,128.38L158.08,129.41L158.32,120.02L158.83,127.56L158.84,127.86L158.9,121.29L159.23,130.73L159.59,126.61L159.6,126.56L159.65,116.8L159.87,132.65L160.35,125.14L160.36,125.63L160.41,131.1L160.45,117.99L161.11,122.68L161.12,122.85L161.14,120.32L161.49,132.12L161.87,123.24L161.88,123.49L162.06,119.87L162.28,131.79L162.63,128.07L162.64,128.09L162.96,131.59L163.06,119.85L163.39,126.53L163.4,126.69L163.89,130.93L164.09,120.9L164.15,127.58L164.16,127.43L164.45,119.4L164.52,130.52L164.91,128.42L164.92,128.06L164.94,132.37L165.62,119.05L165.67,123.12L165.68,122.8L165.76,130.82L165.93,119.29L166.43,125.86L166.44,125.59L166.74,118.17L166.96,132.4L167.19,127.57L167.2,127.61L167.24,133.77L167.3,120.23L167.95,129.49L167.96,129.72L168.08,117.92L168.7,131.34L168.71,129.6L168.72,129.72L168.96,121.29L169.11,130.63L169.47,123.15L169.48,123.43L169.55,131.95L169.75,119.26L170.23,125.2L170.24,125.18L170.3,131.66L170.59,121.02L170.99,129.21L171,129.09L171.12,120.84L171.33,132.66L171.75,126.09L171.76,125.79L171.96,119.75L172.2,131.12L172.51,123.14L172.52,123.35L172.56,131.93L172.7,120.8L173.27,124.64L173.28,124.8L173.73,118.85L173.9,132.28L174.03,122.51L174.04,122.37L174.5,120.49L174.56,131.2L174.79,125.25L174.8,125.42L175.19,133.69L175.39,121.88L175.55,124.96L175.56,125.08L175.69,117.83L175.86,133.08L176.31,128.71L176.32,128.4L176.9,133.29L177,120.37L177.07,127.53L177.08,127.42L177.32,119.27L177.74,134.18L177.83,128.39L177.84,128.48L177.99,132.68L178.5,119.58L178.59,125.21L178.6,125.39L178.67,131.73L178.95,121.09L179.35,126.7L179.36,126.62L179.57,117.97L179.74,130.75L180.11,128.2L180.12,128.5L180.12,130.43L180.34,116.9L180.87,126.17L180.88,126.02L180.96,131.87L181.38,119.35L181.63,129.22L181.64,129.48L182.06,118.62L182.37,132.88L182.39,129.66L182.4,129.51L182.69,121.9L183.03,131.33L183.15,124.98L183.16,124.74L183.27,132.98L183.68,121.63L183.91,128.83L183.92,128.7L184.14,134.21L184.27,121.45L184.67,128.06L184.68,128.04L185.07,133.71L185.37,121.49L185.43,126.2L185.44,126.03L185.46,120.63L185.54,130.23L186.19,124.38L186.2,124.56L186.39,132.03L186.69,119.39L186.95,126.33L186.96,126.56L187.3,119.3L187.35,132.62L187.71,124.56L187.72,124.46L187.99,133.43L188.11,118.69L188.47,125.22L188.48,124.73L188.9,133.55L189.22,122.73L189.23,124.79L189.24,124.44L189.37,120.49L189.59,135L189.99,123.49L190,123.41L190.2,118.72L190.28,131.74L190.75,128.61L190.76,128.54L190.95,132.96L191.15,121.99L191.51,126.63L191.52,126.95L191.59,121.96L191.92,132.41L192.27,126.92L192.28,127.06L192.41,121.11L192.6,132.28L193.03,125.54L193.04,125.62L193.39,121.81L193.62,133.47L193.79,125.35L193.8,125.57L193.9,132.49L194.42,120.55L194.55,126.15L194.56,125.81L194.63,120.05L195.01,132.23L195.31,128.33L195.32,128.26L195.78,133.17L195.88,121.28L196.07,127.36L196.08,126.86L196.15,120.56L196.7,132.19L196.83,125.28L196.84,125.2L197.39,132.57L197.48,120.63L197.59,129.86L197.6,130.24L197.89,123.05L198.07,132.6L198.35,127.8L198.36,127.44L198.62,131.84L198.87,122.69L199.11,126.27L199.12,126.81L199.26,131.7L199.73,121.56L199.87,126.49L199.88,126.61L200.33,132.69L200.59,120.48L200.63,125.52L200.64,125.19L200.74,121.42L200.81,131.02L201.39,127.56L201.4,127.53L201.7,120.66L202.05,134.42L202.15,129.29L202.16,129.2L202.21,122.97L202.72,131.15L202.91,125.78L202.92,125.36L203.32,132.84L203.43,120.42L203.67,126.36L203.68,126.33L203.81,134.66L204.24,116.97L204.43,124.59L204.44,124.86L204.87,122.23L205.19,131.84L205.19,131.19L205.2,131.36L205.33,133.3L205.78,122.06L205.95,130.29L205.96,130.46L206.04,119.17L206.41,134.46L206.71,128.65L206.72,128.26L206.99,123.65L207.38,133.2L207.47,128.78L207.48,128.4L207.71,132.95L208.13,120.29L208.23,128.88L208.24,128.92L208.31,120.53L208.58,133.81L208.99,127.36L209,127.43L209.11,121.94L209.73,132.19L209.75,130.03L209.76,130.07L210.13,130.89L210.27,122.04L210.51,122.7L210.52,122.73L210.54,118.47L211.2,134.7L211.27,125.13L211.28,125.16L211.36,122.36L211.42,132.71L212.03,129.26L212.04,129.38L212.24,122.89L212.51,131.93L212.79,128.87L212.8,128.73L213.06,122.48L213.49,133.01L213.55,129.66L213.56,129.77L213.71,133.42L214.09,121.23L214.31,128.68L214.32,128.88L214.35,125.28L214.82,136.21L215.07,127.83L215.08,127.66L215.45,122.14L215.64,132.82L215.83,124.13L215.84,122.79L215.86,118.98L216.3,134.92L216.59,128.34L216.6,128.32L216.64,122.49L217.06,132.22L217.35,126.14L217.36,126.1L217.56,122.61L217.87,134.42L218.11,130.75L218.12,130.56L218.3,131.16L218.59,122.51L218.87,129.65L218.88,129.6L219.16,121.15L219.47,134.33L219.63,129.19L219.64,128.77L220.16,133.3L220.26,123.23L220.39,131.44L220.4,131.53L220.5,121.23L220.67,134.59L221.15,127.42L221.16,127.14L221.69,133.35L221.83,123.9L221.91,129.5L221.92,129.47L222.14,132.97L222.25,121.78L222.67,126.65L222.68,126.75L222.83,122.01L223.02,133.78L223.43,130.15L223.44,130.12L223.58,121.74L223.79,135.13L224.19,130.46L224.2,130.62L224.31,122.5L224.61,135.61L224.95,130.29L224.96,130.49L225.34,121.69L225.52,135.59L225.71,126.75L225.72,126.82L226.14,136.95L226.33,121.51L226.47,128.75L226.48,128.57L226.6,133.85L227.02,122.44L227.23,125.83L227.24,126.2L227.29,133.94L227.68,123.7L227.99,126.31L228,126.26L228.08,123.34L228.21,135.26L228.75,128.34L228.76,128.07L228.91,122.53L229.37,135.41L229.51,128.07L229.52,127.96L229.57,135.82L230.27,122.41L230.27,124.4L230.28,124.93L230.47,132.91L230.64,121.5L231.03,129.3L231.04,129.19L231.59,136L231.77,122.3L231.79,124.45L231.8,124.48L232.36,134.9L232.45,122.7L232.55,128.73L232.56,128.37L232.7,121.1L233.11,136.18L233.31,131.49L233.32,131.67L233.48,132.86L233.7,121.58L234.07,129.06L234.08,129.18L234.29,121.76L234.75,133.27L234.83,130.11L234.84,130.03L234.86,133.83L235.37,122.16L235.59,127.77L235.6,127.57L235.8,121.26L236.02,135.38L236.35,126.26L236.36,126.54L236.85,133.25L236.95,124.22L237.11,126.95L237.12,127.12L237.65,123.26L237.69,133.13L237.87,128.14L237.88,128.52L238.07,133.9L238.11,125.19L238.63,127.7L238.64,127.89L239.24,133.71L239.3,121.24L239.39,126.86L239.4,126.85L239.69,121.29L239.94,132.49L240.15,125.93L240.16,125.74L240.35,134.52L240.47,122.42L240.91,131.14L240.92,131.35L241.1,123.05L241.65,134.65L241.67,131.37L241.68,131.36L241.92,134.51L242.25,120.98L242.43,129.46L242.44,129.17L242.83,133.62L243.08,124.35L243.19,129.26L243.2,129.51L243.63,123.88L243.67,134L243.95,129.51L243.96,129.91L244.4,123.8L244.71,134.13L244.71,132.51L244.72,132.98L245.25,136.13L245.36,123.88L245.47,124.75L245.48,124.83L245.49,120.11L245.83,133.82L246.23,128.4L246.24,127.93L246.47,134.79L246.82,121.6L246.99,127.7L247,127.36L247.03,123.17L247.17,133.81L247.75,130.31L247.76,130.45L247.81,133.33L248.2,122.29L248.51,130.3L248.52,130.09L248.78,122.93L249.07,135.17L249.27,133.22L249.28,133.32L249.48,121.17L249.98,135.09L250.03,128.76L250.04,129.01L250.39,122.23L250.54,133.6L250.79,131.29L250.8,131.33L250.91,123.94L250.96,136.51L251,129.11" style="vector-effect: non-scaling-stroke; fill: none; stroke: rgb(31, 119, 180); stroke-opacity: 1; stroke-width: 2px; opacity: 1;"/></g><g class="points"/><g class="text"/></g></g></g><g class="overplot"/><path class="xlines-above crisp" d="M0,0" style="fill: none;"/><path class="ylines-above crisp" d="M0,0" style="fill: none;"/><g class="overlines-above"/><g class="xaxislayer-above"><g class="xtick"><text text-anchor="middle" x="0" y="289" transform="translate(60,0)" style="font-family: 'Open Sans', verdana, arial, sans-serif; font-size: 12px; fill: rgb(68, 68, 68); fill-opacity: 1; white-space: pre;">0</text></g><g class="xtick"><text text-anchor="middle" x="0" y="289" transform="translate(139.92000000000002,0)" style="font-family: 'Open Sans', verdana, arial, sans-serif; font-size: 12px; fill: rgb(68, 68, 68); fill-opacity: 1; white-space: pre;">200k</text></g><g class="xtick"><text text-anchor="middle" x="0" y="289" transform="translate(219.85,0)" style="font-family: 'Open Sans', verdana, arial, sans-serif; font-size: 12px; fill: rgb(68, 68, 68); fill-opacity: 1; white-space: pre;">400k</text></g><g class="xtick"><text text-anchor="middle" x="0" y="289" transform="translate(299.77,0)" style="font-family: 'Open Sans', verdana, arial, sans-serif; font-size: 12px; fill: rgb(68, 68, 68); fill-opacity: 1; white-space: pre;">600k</text></g></g><g class="yaxislayer-above"><g class="ytick"><text text-anchor="end" x="59" y="4.199999999999999" transform="translate(0,265.2)" style="font-family: 'Open Sans', verdana, arial, sans-serif; font-size: 12px; fill: rgb(68, 68, 68); fill-opacity: 1; white-space: pre;">0</text></g><g class="ytick"><text text-anchor="end" x="59" y="4.199999999999999" transform="translate(0,223.31)" style="font-family: 'Open Sans', verdana, arial, sans-serif; font-size: 12px; fill: rgb(68, 68, 68); fill-opacity: 1; white-space: pre;">0.5</text></g><g class="ytick"><text text-anchor="end" x="59" y="4.199999999999999" transform="translate(0,181.41)" style="font-family: 'Open Sans', verdana, arial, sans-serif; font-size: 12px; fill: rgb(68, 68, 68); fill-opacity: 1; white-space: pre;">1</text></g><g class="ytick"><text text-anchor="end" x="59" y="4.199999999999999" transform="translate(0,139.51999999999998)" style="font-family: 'Open Sans', verdana, arial, sans-serif; font-size: 12px; fill: rgb(68, 68, 68); fill-opacity: 1; white-space: pre;">1.5</text></g><g class="ytick"><text text-anchor="end" x="59" y="4.199999999999999" transform="translate(0,97.62)" style="font-family: 'Open Sans', verdana, arial, sans-serif; font-size: 12px; fill: rgb(68, 68, 68); fill-opacity: 1; white-space: pre;">2</text></g></g><g class="overaxes-above"/></g></g><g class="polarlayer"/><g class="ternarylayer"/><g class="geolayer"/><g class="funnelarealayer"/><g class="pielayer"/><g class="treemaplayer"/><g class="sunburstlayer"/><g class="glimages"/><defs id="topdefs-74c221"><g class="clips"/></defs><g class="layer-above"><g class="imagelayer"/><g class="shapelayer"/></g><g class="infolayer"><g class="g-gtitle"><text class="gtitle" x="185.5" y="30" text-anchor="middle" dy="0em" style="font-family: 'Open Sans', verdana, arial, sans-serif; font-size: 17px; fill: rgb(68, 68, 68); opacity: 1; font-weight: normal; white-space: pre;">Training loss</text></g><g class="g-xtitle"><text class="xtitle" x="185.5" y="328" text-anchor="middle" style="font-family: 'Open Sans', verdana, arial, sans-serif; font-size: 14px; fill: rgb(68, 68, 68); opacity: 1; font-weight: normal; white-space: pre;">Iterations</text></g><g class="g-ytitle"><text class="ytitle" transform="rotate(-90,22,168)" x="22" y="168" text-anchor="middle" style="font-family: 'Open Sans', verdana, arial, sans-serif; font-size: 14px; fill: rgb(68, 68, 68); opacity: 1; font-weight: normal; white-space: pre;">Loss</text></g></g></svg>