<svg class="main-svg" xmlns="http://www.w3.org/2000/svg" xmlns:xlink="http://www.w3.org/1999/xlink" width="371" height="336" style="" viewBox="0 0 371 336"><rect x="0" y="0" width="371" height="336" style="fill: rgb(255, 255, 255); fill-opacity: 1;"/><defs id="defs-5bfb47"><g class="clips"><clipPath id="clip5bfb47xyplot" class="plotclip"><rect width="251" height="216"/></clipPath><clipPath class="axesclip" id="clip5bfb47x"><rect x="60" y="0" width="251" height="336"/></clipPath><clipPath class="axesclip" id="clip5bfb47y"><rect x="0" y="60" width="371" height="216"/></clipPath><clipPath class="axesclip" id="clip5bfb47xy"><rect x="60" y="60" width="251" height="216"/></clipPath></g><g class="gradients"/></defs><g class="bglayer"/><g class="layer-below"><g class="imagelayer"/><g class="shapelayer"/></g><g class="cartesianlayer"><g class="subplot xy"><g class="layer-subplot"><g class="shapelayer"/><g class="imagelayer"/></g><g class="gridlayer"><g class="x"><path class="xgrid crisp" transform="translate(179.87,0)" d="M0,60v216" style="stroke: rgb(238, 238, 238); stroke-opacity: 1; stroke-width: 1px;"/><path class="xgrid crisp" transform="translate(299.73,0)" d="M0,60v216" style="stroke: rgb(238, 238, 238); stroke-opacity: 1; stroke-width: 1px;"/></g><g class="y"><path class="ygrid crisp" transform="translate(0,225.18)" d="M60,0h251" style="stroke: rgb(238, 238, 238); stroke-opacity: 1; stroke-width: 1px;"/><path class="ygrid crisp" transform="translate(0,185.17000000000002)" d="M60,0h251" style="stroke: rgb(238, 238, 238); stroke-opacity: 1; stroke-width: 1px;"/><path class="ygrid crisp" transform="translate(0,145.15)" d="M60,0h251" style="stroke: rgb(238, 238, 238); stroke-opacity: 1; stroke-width: 1px;"/><path class="ygrid crisp" transform="translate(0,105.14)" d="M60,0h251" style="stroke: rgb(238, 238, 238); stroke-opacity: 1; stroke-width: 1px;"/><path class="ygrid crisp" transform="translate(0,65.12)" d="M60,0h251" style="stroke: rgb(238, 238, 238); stroke-opacity: 1; stroke-width: 1px;"/></g></g><g class="zerolinelayer"><path class="xzl zl crisp" transform="translate(60,0)" d="M0,60v216" style="stroke: rgb(68, 68, 68); stroke-opacity: 1; stroke-width: 1px;"/><path class="yzl zl crisp" transform="translate(0,265.2)" d="M60,0h251" style="stroke: rgb(68, 68, 68); stroke-opacity: 1; stroke-width: 1px;"/></g><path class="xlines-below"/><path class="ylines-below"/><g class="overlines-below"/><g class="xaxislayer-below"/><g class="yaxislayer-below"/><g class="overaxes-below"/><g class="plot" transform="translate(60,60)" clip-path="url('#clip5bfb47xyplot')"><g class="scatterlayer mlayer"><g class="trace scatter tracea6b117" style="stroke-miterlimit: 2; opacity: 1;"><g class="fills"/><g class="errorbars"/><g class="lines"><path class="js-line" d="M0,205.2L0,10.8L0.75,65.79L0.76,65.91L0.82,56.63L1.41,78.24L1.51,75.67L1.52,75.67L1.55,73.24L2.21,85.41L2.27,84.15L2.28,84.33L2.72,76.13L3.03,91.06L3.04,91.05L3.09,85.95L3.54,96.87L3.79,93.95L3.8,94.16L4.09,89.56L4.55,99.37L4.55,99.2L4.56,99.11L4.59,93.18L5.28,103.26L5.31,102.96L5.32,103.06L5.37,96.93L6.04,105.77L6.07,103.68L6.08,103.48L6.61,109.65L6.69,98.46L6.83,104.23L6.84,104.26L7.16,90.12L7.52,110.88L7.59,109.43L7.6,109.43L7.72,105.68L8.27,113.47L8.35,110.83L8.36,110.87L8.54,106.55L9.05,115.01L9.11,112.26L9.12,112.33L9.54,111.23L9.71,116.9L9.87,113.34L9.88,113.42L10.29,118.4L10.52,109.13L10.63,117.21L10.64,117.35L11.21,113.07L11.27,120.37L11.39,116.78L11.4,116.81L11.5,120.31L11.62,111.48L12.15,119.37L12.16,119.27L12.23,121.07L12.66,112.42L12.91,117.17L12.92,117.36L13.29,122.15L13.52,113.88L13.67,117.66L13.68,117.76L14.21,115.22L14.42,122.53L14.43,118.09L14.44,118.26L14.44,117.05L15.18,123.22L15.19,122.17L15.2,122.11L15.57,115.56L15.89,123.45L15.95,121.32L15.96,121.41L16.6,124.25L16.65,118.02L16.71,122.25L16.72,122.28L17,119.87L17.47,124.3L17.47,123.42L17.48,123.35L17.51,118.26L17.7,125.48L18.23,124.57L18.24,124.53L18.62,125.42L18.75,119.84L18.99,123.03L19,123.06L19.31,117.27L19.49,125.44L19.75,124.68L19.76,124.75L20.26,125.9L20.37,119.71L20.51,122.78L20.52,122.92L20.84,126.46L21.21,120.46L21.27,125.28L21.28,125.25L21.35,121.69L21.82,126.86L22.03,125.92L22.04,125.87L22.04,127.9L22.62,112.69L22.79,124.82L22.8,124.89L23.19,127.97L23.33,122.71L23.55,125.13L23.56,125.25L24,122.2L24.3,127.52L24.31,125.8L24.32,125.78L24.91,122.29L24.96,128.3L25.07,127.2L25.08,127.14L25.14,122.19L25.63,129.14L25.83,126.58L25.84,126.74L26.17,123.76L26.4,128.6L26.59,126.78L26.6,126.84L26.87,129.39L27.28,123.28L27.35,126.94L27.36,127.06L27.73,122.19L28.11,129.38L28.11,128.93L28.12,128.54L28.26,123.56L28.59,130.09L28.87,126.63L28.88,126.67L29.32,129.73L29.47,123.19L29.63,128.75L29.64,128.51L29.69,122.68L30.02,130.92L30.39,125.6L30.4,125.55L31.05,130.2L31.1,124.64L31.15,130L31.16,130.05L31.56,125.24L31.83,131.18L31.91,127.91L31.92,127.86L32.05,130.53L32.33,122.89L32.67,128.47L32.68,128.63L32.89,123.05L33.23,130.65L33.43,128.1L33.44,128.27L33.61,130.7L33.75,126.06L34.19,130.31L34.2,130.23L34.43,130.99L34.45,123.69L34.95,129.15L34.96,129.3L35.41,131.45L35.44,126.18L35.71,130.92L35.72,130.97L35.72,131.87L36.04,125.9L36.47,129.87L36.48,129.93L36.78,126.72L37.05,132.32L37.23,129.77L37.24,129.76L37.81,132.96L37.98,125.65L37.99,129.36L38,129.69L38.26,126.34L38.74,131.86L38.75,130.56L38.76,130.76L39.09,126.87L39.47,132.72L39.51,129.78L39.52,129.29L39.6,125.73L39.65,132.84L40.27,128.51L40.28,128.33L40.34,133L40.79,127.67L41.03,130.23L41.04,130.33L41.16,133.7L41.48,127.78L41.79,130.03L41.8,130.22L41.94,125.89L41.98,132.89L42.55,129.2L42.56,129.27L42.81,126.86L43.09,133.47L43.31,131.2L43.32,131.24L43.46,128.1L44,133L44.07,131.08L44.08,131.06L44.19,127.62L44.3,135.29L44.83,131.63L44.84,131.72L45.06,126.07L45.43,133.98L45.59,130.38L45.6,130.6L46.07,133.76L46.28,128.52L46.35,131.18L46.36,131.18L46.72,127.61L46.81,134.15L47.11,131.33L47.12,131.39L47.52,126.22L47.58,134.81L47.87,133.98L47.88,134L47.89,134.71L48.12,128.7L48.63,131.18L48.64,131.08L48.76,129.37L48.92,135.04L49.39,131.43L49.4,131.34L49.81,129.13L49.89,135.04L50.15,131.8L50.16,131.72L50.37,135.32L50.68,122.6L50.91,133.86L50.92,134.01L51.15,130.41L51.63,135.48L51.67,133.25L51.68,133.46L52.17,125.82L52.27,135.45L52.43,132.95L52.44,132.82L52.64,135.64L53.07,129.82L53.19,133.03L53.2,133.03L53.24,126.54L53.7,135.27L53.95,133.54L53.96,133.4L54.55,135.21L54.57,129.52L54.71,132.76L54.72,132.67L54.95,134.88L55.07,129.75L55.47,133.66L55.48,133.71L55.82,130.58L55.94,136.94L56.23,133.38L56.24,133.46L56.31,136.58L56.51,130.55L56.99,134.61L57,134.63L57.32,130.32L57.37,136.43L57.75,131.93L57.76,132.09L57.79,124.94L57.83,135.92L58.51,132.31L58.52,132.22L58.55,137.3L59.17,126.31L59.27,131.82L59.28,131.91L59.38,136.19L59.99,131.38L60.03,133.13L60.04,133.16L60.24,135.87L60.28,129.79L60.79,133.5L60.8,133.58L61.3,136.27L61.38,130.69L61.55,133.82L61.56,133.97L61.82,130.56L62.21,137.41L62.31,134.22L62.32,134.25L62.71,136.67L62.9,131.1L63.07,135.25L63.08,135.25L63.28,136.51L63.81,128.43L63.83,135.39L63.84,135.31L64.15,136.44L64.39,128.94L64.59,134.76L64.6,134.6L64.66,136.31L64.68,131.78L65.35,133.9L65.36,133.99L65.56,137.55L65.8,131.6L66.11,133.41L66.12,133.12L66.52,130.37L66.83,136.67L66.87,134.4L66.88,134.49L67.45,137.8L67.51,132.3L67.63,135.03L67.64,134.9L67.7,136.68L68.04,128.14L68.39,133.41L68.4,133.54L68.49,132.23L68.97,137.4L69.15,134.04L69.16,133.83L69.35,131.91L69.9,137.5L69.91,134.83L69.92,134.78L70.27,137.45L70.42,131.16L70.67,135.45L70.68,135.17L70.91,132.3L71.1,137.69L71.43,134.36L71.44,134.28L71.56,129.03L71.88,137.32L72.19,135.98L72.2,135.76L72.35,132.18L72.85,137.38L72.95,135.85L72.96,136L73.03,130.86L73.64,137.74L73.71,134.76L73.72,134.7L73.79,137.27L74.12,125.28L74.47,135.78L74.48,135.65L74.79,138.27L75.03,133.01L75.23,134.62L75.24,134.77L75.52,130.52L75.73,138.52L75.99,136.38L76,136.5L76,137.7L76.5,132.94L76.75,133.78L76.76,133.96L76.79,137.83L77.43,131.89L77.51,134.06L77.52,134.25L78.03,133.25L78.1,138.64L78.27,134.71L78.28,134.8L78.36,133.11L78.99,138.24L79.03,135.27L79.04,135.32L79.24,137.96L79.62,124.78L79.79,136.82L79.8,136.77L80.45,137.8L80.49,132.52L80.55,135.64L80.56,135.63L80.71,138.39L81.23,133.76L81.31,135.19L81.32,135.1L81.52,138.41L82.01,132.61L82.07,133.99L82.08,133.96L82.38,129.72L82.67,138.09L82.83,134.83L82.84,135.07L83.02,133.28L83.05,138.45L83.59,135.79L83.6,135.79L84.23,133.41L84.33,138.5L84.35,133.79L84.36,133.8L84.5,130.26L84.67,138.23L85.11,135.27L85.12,135.18L85.18,140.15L85.68,133.14L85.87,135.54L85.88,135.53L86.18,138.47L86.3,134.58L86.63,137.42L86.64,137.39L86.73,132.81L87.34,138.93L87.39,135.59L87.4,135.55L87.48,138.93L87.81,133.51L88.15,136.69L88.16,136.67L88.47,132.62L88.65,138.39L88.91,135.49L88.92,135.45L89.13,130.73L89.4,138.4L89.67,134.61L89.68,134.63L89.68,133.32L89.76,139.88L90.43,137.08L90.44,136.82L90.53,139.1L90.75,133.83L91.19,136.81L91.2,136.98L91.2,139.76L91.7,132.97L91.95,137.98L91.96,138.07L92.2,133.86L92.27,139.11L92.71,136.38L92.72,136.33L93.02,131.83L93.08,139.08L93.47,135.29L93.48,135.35L93.88,140.36L94.12,132.7L94.23,136.02L94.24,136.13L94.28,139.96L94.89,133.15L94.99,137.16L95,137.26L95.12,139.91L95.21,133.34L95.75,136.18L95.76,136.15L96.35,134.85L96.37,139.46L96.51,138.2L96.52,138.09L97.12,133.69L97.2,139.26L97.27,138.48L97.28,138.27L97.43,140.67L97.83,134.86L98.03,137.51L98.04,137.74L98.17,139.73L98.66,133.28L98.79,137.42L98.8,137.48L99.03,139.93L99.48,133.52L99.55,134.29L99.56,134.37L99.56,134.18L99.79,138.84L100.31,136.71L100.32,136.9L100.66,135L100.73,139.79L101.07,136.26L101.08,136.21L101.45,142.22L101.69,133.66L101.83,137.42L101.84,137.59L101.97,126.42L102.52,139.83L102.59,134.34L102.6,134.51L102.6,134.09L102.66,139.58L103.35,138.53L103.36,138.53L103.38,133.47L103.48,140.05L104.11,138.26L104.12,138.02L104.63,135.06L104.72,140.15L104.87,139.15L104.88,139.15L105.18,135.17L105.5,140.43L105.63,137.38L105.64,137.1L105.9,135.01L106.18,140.08L106.39,138.71L106.4,138.78L106.94,139.87L107.07,134.73L107.15,137.8L107.16,137.88L107.44,135.05L107.49,140.1L107.91,137.36L107.92,137.31L108.25,139.55L108.47,131.22L108.67,137.13L108.68,137.19L108.71,134.58L108.99,140.46L109.43,138.47L109.44,138.65L110.03,133.99L110.13,140.43L110.19,136.29L110.2,136.46L110.36,140.85L110.62,135.08L110.95,137.57L110.96,137.4L111.02,134.78L111.44,140.65L111.71,138.09L111.72,138.12L112.25,135.63L112.46,140.34L112.47,140.06L112.48,140.13L112.89,133.75L113.23,140.09L113.24,139.97L113.33,140.83L113.54,134.46L113.99,138.68L114,138.63L114.22,134.57L114.58,140.86L114.75,137.9L114.76,137.8L114.93,135.3L115.48,140.58L115.51,138.48L115.52,138.44L115.59,140.34L116.24,135.82L116.27,138.54L116.28,138.35L116.38,142.88L116.77,135.1L117.03,138.67L117.04,138.69L117.13,135.6L117.79,142.23L117.79,141.03L117.8,140.68L118.2,135.11L118.55,137.33L118.56,137.32L118.69,136.16L119.27,141L119.31,139.88L119.32,140.03L119.57,135.26L119.77,141.06L120.07,137.26L120.08,137.31L120.16,135.61L120.52,140.74L120.83,138.38L120.84,138.56L120.89,141.06L121.13,132.81L121.59,139.63L121.6,139.48L121.65,140.77L121.76,136.18L122.35,138.57L122.36,138.55L122.8,135.76L122.87,141.26L123.11,138.44L123.12,138.37L123.16,135.49L123.68,140.95L123.87,138.45L123.88,138.4L124.28,136.09L124.62,141.06L124.63,138.83L124.64,138.7L125.28,141.1L125.31,135.77L125.39,138.73L125.4,138.28L125.47,136.09L125.57,141.51L126.15,138.45L126.16,138.57L126.28,134.37L126.74,141.43L126.91,137.82L126.92,137.72L127.08,141.51L127.56,135.54L127.67,139.04L127.68,139.04L128.13,135.7L128.33,141.51L128.43,138.05L128.44,137.94L128.81,141.38L128.96,135.73L129.19,137.84L129.2,137.7L129.48,136.04L129.84,141.49L129.95,137.64L129.96,137.6L130.03,135.29L130.56,140.96L130.71,138.63L130.72,138.57L130.94,136.69L131.04,141.32L131.47,137.82L131.48,137.86L131.84,141.75L132.04,135.4L132.23,137.89L132.24,137.88L132.38,141.15L132.49,137.04L132.99,137.4L133,137.4L133.15,134.07L133.63,141.56L133.75,137.49L133.76,137.5L133.77,140.69L134.11,135.91L134.51,137.55L134.52,137.48L134.95,135.54L135.27,141.1L135.27,140.94L135.28,141.01L135.77,141.99L136.03,135.43L136.03,136.43L136.04,136.22L136.4,134.8L136.5,141.49L136.79,138.7L136.8,138.66L136.9,140.75L137.29,136.24L137.55,138.72L137.56,138.65L137.6,135.89L138.29,141.61L138.31,137.86L138.32,137.73L138.66,140.9L138.82,136.76L139.07,138.4L139.08,138.3L139.39,141.43L139.56,126.44L139.83,137.62L139.84,137.73L139.9,136.36L140.12,142.12L140.59,138.33L140.6,138.33L140.92,141.07L141.06,136.59L141.35,138.68L141.36,138.85L141.4,134.43L141.96,141.76L142.11,138.41L142.12,138.4L142.32,142.06L142.6,136.92L142.87,140.09L142.88,140.17L143.2,142.48L143.29,134.19L143.63,140.49L143.64,140.48L144.33,134.82L144.39,141.35L144.39,138.65L144.4,138.66L144.62,135.82L145.03,142.38L145.15,140.71L145.16,140.62L145.68,135.07L145.71,141.97L145.91,137.83L145.92,137.87L146.24,141.58L146.41,135.01L146.67,139.59L146.68,139.63L146.99,137.11L147.31,141.17L147.43,138.12L147.44,138.07L147.81,135.5L148.18,143.06L148.19,140.88L148.2,140.62L148.3,141.95L148.73,136.13L148.95,139.8L148.96,139.77L149.14,142.79L149.34,135.88L149.71,139.47L149.72,139.43L149.85,135.75L150.39,142.39L150.47,139.68L150.48,139.55L150.73,141.61L150.98,137.2L151.23,139.36L151.24,139.19L151.87,143.54L151.96,135.79L151.99,138.44L152,138.32L152.18,141.89L152.57,136.1L152.75,140.66L152.76,140.59L153.08,142.23L153.5,133.68L153.51,138.07L153.52,138.14L153.9,137.2L154.13,141.63L154.27,139.05L154.28,139.22L154.52,136.84L154.79,141.24L155.03,139.62L155.04,139.61L155.31,141.41L155.43,136.45L155.79,139.46L155.8,139.38L156.36,137.02L156.4,141.86L156.55,138.75L156.56,138.8L156.71,142.7L157.28,135.49L157.31,137.23L157.32,137.34L157.43,136.66L157.81,142.49L158.07,139.44L158.08,139.43L158.33,142.04L158.7,136.71L158.83,139.43L158.84,139.37L159,137.24L159.34,141.92L159.59,140.29L159.6,140.54L159.77,137.39L160.08,142.17L160.35,137.73L160.36,137.71L160.58,137.58L160.95,145.22L161.11,141.42L161.12,141.59L161.64,144.94L161.68,140.42L161.87,143.08L161.88,142.94L162.51,139.66L162.61,144.82L162.63,143.33L162.64,143.23L162.99,140.61L163.05,145.81L163.39,143.01L163.4,142.97L163.59,144.84L164.06,140.67L164.15,143.24L164.16,143.13L164.19,144.91L164.48,140.02L164.91,142.79L164.92,142.72L165.4,145.07L165.61,140.93L165.67,143.15L165.68,143.01L166.1,141.06L166.36,145.4L166.43,143.4L166.44,143.36L166.48,145.95L166.99,140.41L167.19,141.44L167.2,141.54L167.71,145.33L167.86,140.8L167.95,143.21L167.96,143.37L168.26,140.47L168.7,145.82L168.71,144.89L168.72,144.74L168.94,140.55L169.44,145.39L169.47,142.65L169.48,142.55L169.78,145.17L170.18,140.17L170.23,142.48L170.24,142.37L170.53,144.86L170.62,141.2L170.99,143.4L171,143.47L171.01,145.8L171.04,141.21L171.75,142.21L171.76,142.18L172.01,145.99L172.17,141.09L172.51,141.76L172.52,141.81L173.1,140.65L173.22,145.52L173.27,142.39L173.28,142.29L173.83,146.41L173.88,140.61L174.03,143.6L174.04,143.58L174.66,146.2L174.73,141.37L174.79,144.44L174.8,144.6L175.38,145.91L175.5,140.84L175.55,142.71L175.56,142.89L175.63,144.92L175.98,140.79L176.31,143.87L176.32,143.8L176.35,146.67L176.82,140.14L177.07,143.04L177.08,143.08L177.46,140.68L177.5,145.85L177.83,143.05L177.84,143.04L178.11,145.65L178.57,140L178.59,143.63L178.6,143.83L178.83,145.74L178.96,140.9L179.35,143.51L179.36,143.49L179.71,140.79L179.81,146L180.11,143.86L180.12,143.9L180.27,146.19L180.67,140.81L180.87,142.59L180.88,142.7L181.38,147.54L181.42,141.65L181.63,143.05L181.64,143.1L181.81,146.22L182.01,141.58L182.39,143.27L182.4,143.28L182.76,146.57L183.02,141.12L183.15,142.88L183.16,142.76L183.18,145.8L183.58,140.69L183.91,143.67L183.92,144.4L184.41,145.9L184.48,140.6L184.67,143.71L184.68,143.6L184.82,141.79L185.11,146.68L185.43,145.14L185.44,145.29L185.79,145.61L186.09,141.06L186.19,143.77L186.2,143.81L186.52,141.64L186.83,146L186.95,145.03L186.96,144.89L187.04,141.72L187.08,146.92L187.71,141.97L187.72,142.03L187.75,146.57L188.39,141.06L188.47,143.09L188.48,143.17L188.92,141.12L189.14,146.31L189.23,142.23L189.24,142.76L189.3,141.23L189.59,146.58L189.99,142.74L190,142.97L190.18,145.96L190.5,140.78L190.75,142.74L190.76,142.75L191.15,141.33L191.45,145.92L191.51,143.57L191.52,143.44L191.79,142.01L192.27,146.43L192.27,145.22L192.28,145.21L192.35,140.53L193,146.08L193.03,143.85L193.04,144.01L193.11,145.66L193.27,141.36L193.79,141.58L193.8,141.56L193.83,140.52L194.09,146.84L194.55,143.75L194.56,143.72L194.67,145.95L194.81,141.51L195.31,144.22L195.32,144.43L195.6,141.61L196.04,145.87L196.07,143.71L196.08,143.71L196.37,145.63L196.62,141.64L196.83,143.39L196.84,143.37L196.94,145.58L197.55,140.88L197.59,144.41L197.6,144.63L197.79,140.95L197.84,146.96L198.35,141.9L198.36,141.88L198.44,141.36L198.79,146.58L199.11,143.49L199.12,143.05L199.53,147.99L199.79,141.07L199.87,144.92L199.88,144.89L200.15,141.07L200.21,146.37L200.63,144.6L200.64,144.58L200.82,141.08L201.01,146.09L201.39,143.9L201.4,143.76L201.61,141.55L202.03,145.86L202.15,145.38L202.16,145.26L202.23,146.48L202.3,141.27L202.91,141.95L202.92,141.93L203.09,140.98L203.6,146.18L203.67,143.73L203.68,143.59L203.86,141.47L204.32,146.49L204.43,144.18L204.44,143.74L204.74,147.46L204.89,141.68L205.19,144.07L205.2,144.17L205.8,141.41L205.92,146.73L205.95,144.2L205.96,144.06L206.52,141.8L206.61,146.14L206.71,144.36L206.72,144.42L206.87,141.55L207.46,146.19L207.47,143.39L207.48,143.43L207.97,141.59L208.09,146.45L208.23,143.62L208.24,143.64L208.26,140.9L208.65,146.23L208.99,143.08L209,143.18L209.22,146.47L209.28,141.58L209.75,144.25L209.76,144.18L209.87,141.29L210.46,145.88L210.51,144.94L210.52,145.12L211.01,141.34L211.2,146.05L211.27,143.36L211.28,143.3L211.34,145.69L211.48,141.34L212.03,142.63L212.04,142.78L212.64,141.73L212.68,145.86L212.79,144.65L212.8,144.61L213.22,146.31L213.49,141.24L213.55,144.53L213.56,144.62L214.02,141.64L214.11,146.18L214.31,143.98L214.32,143.93L214.51,140.88L215,147.36L215.07,142.78L215.08,143.02L215.39,146.34L215.51,141.42L215.83,145.7L215.84,145.7L216.06,140.86L216.54,146.43L216.59,142.45L216.6,142.46L216.71,146.7L216.74,141.09L217.35,142.66L217.36,142.66L217.66,141.4L217.74,146.73L218.11,143.1L218.12,143.08L218.13,141.41L218.83,145.9L218.87,144.13L218.88,144.11L219.04,146.12L219.39,141.42L219.63,143.82L219.64,143.93L219.88,146.78L220.2,141.72L220.39,142.85L220.4,142.81L220.41,141.37L220.82,147.16L221.15,143.98L221.16,143.72L221.27,141.45L221.63,146.58L221.91,142.72L221.92,142.91L222.42,141.45L222.65,146.13L222.67,144.84L222.68,144.99L222.81,146.87L223.02,141.44L223.43,143.53L223.44,143.61L223.77,141.69L224.09,146.21L224.19,144.5L224.2,144.45L224.64,147.51L224.73,141.22L224.95,144.89L224.96,144.86L225.41,147.11L225.54,141.64L225.71,145.82L225.72,145.99L225.77,141.32L226.05,146.59L226.47,145.6L226.48,145.68L226.59,146.49L227.21,141.94L227.23,145.64L227.24,145.56L227.87,142.22L227.95,146.68L227.99,144.78L228,144.69L228.23,146.59L228.7,141.83L228.75,144.13L228.76,144.28L228.88,142.27L229.18,147.07L229.51,144.95L229.52,145.1L229.67,146.2L230.08,141.81L230.27,143.41L230.28,143.47L230.72,146.92L230.94,142.21L231.03,144.12L231.04,144.1L231.07,142.11L231.68,147L231.79,144.25L231.8,144.4L232.02,142.16L232.46,147.05L232.55,143.86L232.56,143.9L232.81,146.94L233.13,142.11L233.31,145L233.32,145.09L233.66,147.21L233.69,141.85L234.07,144.2L234.08,144.2L234.31,141.85L234.39,147.26L234.83,144.34L234.84,144.39L234.92,142L235.1,147.08L235.59,144.83L235.6,145.02L236.01,141.78L236.04,147.21L236.35,143.53L236.36,143.48L236.91,141.68L236.95,146.83L237.11,142.82L237.12,142.73L237.54,147.59L237.67,142.17L237.87,143.35L237.88,143.51L238.16,147.02L238.52,142.24L238.63,144.56L238.64,144.68L239.24,142.24L239.39,146.31L239.4,146.3L239.41,146.91L239.84,141.87L240.15,144.61L240.16,144.35L240.37,146.24L240.8,141.47L240.91,144.41L240.92,144.46L241.28,146.68L241.63,141.19L241.67,144.19L241.68,144.39L242.09,142.71L242.41,147.22L242.43,144.9L242.44,145.03L242.52,141.25L242.62,147.51L243.19,145.03L243.2,145.09L243.76,142L243.91,146.43L243.95,145.53L243.96,145.48L244.08,141.78L244.58,147.11L244.71,144.41L244.72,144.51L244.96,142.17L245.24,147.02L245.47,144.5L245.48,144.89L245.6,142.63L246.19,146.37L246.23,144.2L246.24,144.12L246.69,148.01L246.76,142.2L246.99,142.84L247,142.76L247.4,142.22L247.55,146.02L247.75,145.14L247.76,144.99L248.22,147.1L248.28,141.86L248.51,144.28L248.52,144.44L248.91,141.79L249.1,146.29L249.27,146.11L249.28,145.99L249.76,140.83L249.88,147.65L250.03,145.79L250.04,145.92L250.32,142.55L250.52,147L250.79,145.98L250.8,146.15L250.82,142.98L250.9,146.72L251,144.95" style="vector-effect: non-scaling-stroke; fill: none; stroke: rgb(31, 119, 180); stroke-opacity: 1; stroke-width: 2px; opacity: 1;"/></g><g class="points"/><g class="text"/></g></g></g><g class="overplot"/><path class="xlines-above crisp" d="M0,0" style="fill: none;"/><path class="ylines-above crisp" d="M0,0" style="fill: none;"/><g class="overlines-above"/><g class="xaxislayer-above"><g class="xtick"><text text-anchor="middle" x="0" y="289" transform="translate(60,0)" style="font-family: 'Open Sans', verdana, arial, sans-serif; font-size: 12px; fill: rgb(68, 68, 68); fill-opacity: 1; white-space: pre;">0</text></g><g class="xtick"><text text-anchor="middle" x="0" y="289" transform="translate(179.87,0)" style="font-family: 'Open Sans', verdana, arial, sans-serif; font-size: 12px; fill: rgb(68, 68, 68); fill-opacity: 1; white-space: pre;">0.5M</text></g><g class="xtick"><text text-anchor="middle" x="0" y="289" transform="translate(299.73,0)" style="font-family: 'Open Sans', verdana, arial, sans-serif; font-size: 12px; fill: rgb(68, 68, 68); fill-opacity: 1; white-space: pre;">1M</text></g></g><g class="yaxislayer-above"><g class="ytick"><text text-anchor="end" x="59" y="4.199999999999999" transform="translate(0,265.2)" style="font-family: 'Open Sans', verdana, arial, sans-serif; font-size: 12px; fill: rgb(68, 68, 68); fill-opacity: 1; white-space: pre;">0</text></g><g class="ytick"><text text-anchor="end" x="59" y="4.199999999999999" transform="translate(0,225.18)" style="font-family: 'Open Sans', verdana, arial, sans-serif; font-size: 12px; fill: rgb(68, 68, 68); fill-opacity: 1; white-space: pre;">0.5</text></g><g class="ytick"><text text-anchor="end" x="59" y="4.199999999999999" transform="translate(0,185.17000000000002)" style="font-family: 'Open Sans', verdana, arial, sans-serif; font-size: 12px; fill: rgb(68, 68, 68); fill-opacity: 1; white-space: pre;">1</text></g><g class="ytick"><text text-anchor="end" x="59" y="4.199999999999999" transform="translate(0,145.15)" style="font-family: 'Open Sans', verdana, arial, sans-serif; font-size: 12px; fill: rgb(68, 68, 68); fill-opacity: 1; white-space: pre;">1.5</text></g><g class="ytick"><text text-anchor="end" x="59" y="4.199999999999999" transform="translate(0,105.14)" style="font-family: 'Open Sans', verdana, arial, sans-serif; font-size: 12px; fill: rgb(68, 68, 68); fill-opacity: 1; white-space: pre;">2</text></g><g class="ytick"><text text-anchor="end" x="59" y="4.199999999999999" transform="translate(0,65.12)" style="font-family: 'Open Sans', verdana, arial, sans-serif; font-size: 12px; fill: rgb(68, 68, 68); fill-opacity: 1; white-space: pre;">2.5</text></g></g><g class="overaxes-above"/></g></g><g class="polarlayer"/><g class="ternarylayer"/><g class="geolayer"/><g class="funnelarealayer"/><g class="pielayer"/><g class="treemaplayer"/><g class="sunburstlayer"/><g class="glimages"/><defs id="topdefs-5bfb47"><g class="clips"/></defs><g class="layer-above"><g class="imagelayer"/><g class="shapelayer"/></g><g class="infolayer"><g class="g-gtitle"><text class="gtitle" x="185.5" y="30" text-anchor="middle" dy="0em" style="font-family: 'Open Sans', verdana, arial, sans-serif; font-size: 17px; fill: rgb(68, 68, 68); opacity: 1; font-weight: normal; white-space: pre;">Training loss</text></g><g class="g-xtitle"><text class="xtitle" x="185.5" y="328" text-anchor="middle" style="font-family: 'Open Sans', verdana, arial, sans-serif; font-size: 14px; fill: rgb(68, 68, 68); opacity: 1; font-weight: normal; white-space: pre;">Iterations</text></g><g class="g-ytitle"><text class="ytitle" transform="rotate(-90,22,168)" x="22" y="168" text-anchor="middle" style="font-family: 'Open Sans', verdana, arial, sans-serif; font-size: 14px; fill: rgb(68, 68, 68); opacity: 1; font-weight: normal; white-space: pre;">Loss</text></g></g></svg>