<svg class="main-svg" xmlns="http://www.w3.org/2000/svg" xmlns:xlink="http://www.w3.org/1999/xlink" width="371" height="336" style="" viewBox="0 0 371 336"><rect x="0" y="0" width="371" height="336" style="fill: rgb(255, 255, 255); fill-opacity: 1;"/><defs id="defs-fcd11c"><g class="clips"><clipPath id="clipfcd11cxyplot" class="plotclip"><rect width="251" height="216"/></clipPath><clipPath class="axesclip" id="clipfcd11cx"><rect x="60" y="0" width="251" height="336"/></clipPath><clipPath class="axesclip" id="clipfcd11cy"><rect x="0" y="60" width="371" height="216"/></clipPath><clipPath class="axesclip" id="clipfcd11cxy"><rect x="60" y="60" width="251" height="216"/></clipPath></g><g class="gradients"/></defs><g class="bglayer"/><g class="layer-below"><g class="imagelayer"/><g class="shapelayer"/></g><g class="cartesianlayer"><g class="subplot xy"><g class="layer-subplot"><g class="shapelayer"/><g class="imagelayer"/></g><g class="gridlayer"><g class="x"><path class="xgrid crisp" transform="translate(179.85,0)" d="M0,60v216" style="stroke: rgb(238, 238, 238); stroke-opacity: 1; stroke-width: 1px;"/><path class="xgrid crisp" transform="translate(299.71000000000004,0)" d="M0,60v216" style="stroke: rgb(238, 238, 238); stroke-opacity: 1; stroke-width: 1px;"/></g><g class="y"><path class="ygrid crisp" transform="translate(0,227.23)" d="M60,0h251" style="stroke: rgb(238, 238, 238); stroke-opacity: 1; stroke-width: 1px;"/><path class="ygrid crisp" transform="translate(0,189.27)" d="M60,0h251" style="stroke: rgb(238, 238, 238); stroke-opacity: 1; stroke-width: 1px;"/><path class="ygrid crisp" transform="translate(0,151.3)" d="M60,0h251" style="stroke: rgb(238, 238, 238); stroke-opacity: 1; stroke-width: 1px;"/><path class="ygrid crisp" transform="translate(0,113.33)" d="M60,0h251" style="stroke: rgb(238, 238, 238); stroke-opacity: 1; stroke-width: 1px;"/><path class="ygrid crisp" transform="translate(0,75.37)" d="M60,0h251" style="stroke: rgb(238, 238, 238); stroke-opacity: 1; stroke-width: 1px;"/></g></g><g class="zerolinelayer"><path class="xzl zl crisp" transform="translate(60,0)" d="M0,60v216" style="stroke: rgb(68, 68, 68); stroke-opacity: 1; stroke-width: 1px;"/><path class="yzl zl crisp" transform="translate(0,265.2)" d="M60,0h251" style="stroke: rgb(68, 68, 68); stroke-opacity: 1; stroke-width: 1px;"/></g><path class="xlines-below"/><path class="ylines-below"/><g class="overlines-below"/><g class="xaxislayer-below"/><g class="yaxislayer-below"/><g class="overaxes-below"/><g class="plot" transform="translate(60,60)" clip-path="url('#clipfcd11cxyplot')"><g class="scatterlayer mlayer"><g class="trace scatter traceb4b056" style="stroke-miterlimit: 2; opacity: 1;"><g class="fills"/><g class="errorbars"/><g class="lines"><path class="js-line" d="M0,205.2L0.01,10.8L0.75,132L0.76,131.98L0.8,120.73L1.31,145.1L1.51,141.62L1.52,141.54L1.89,127.99L2.24,155.68L2.27,153.91L2.28,154.22L2.65,145.93L2.98,163.53L3.03,161.34L3.04,161.39L3.09,152.86L3.74,166.47L3.79,165.87L3.8,165.87L4.34,168.12L4.49,141.54L4.55,165.55L4.56,165.52L4.6,161.11L4.87,168.89L5.31,166.65L5.32,166.52L5.51,163L5.88,170.85L6.07,167.17L6.08,167.09L6.5,171.45L6.52,158.27L6.83,170.65L6.84,170.67L7.02,163.21L7.57,171.84L7.59,169.12L7.6,169.14L7.63,166.32L8.01,172.96L8.35,167.34L8.36,167.6L8.43,173.32L8.85,162.28L9.11,171.49L9.12,171.59L9.5,173.81L9.81,162.63L9.87,172.36L9.88,172.32L10.01,169.38L10.33,174.27L10.63,170.42L10.64,170.5L10.97,174.52L11.03,169.05L11.39,172.19L11.4,172.13L11.77,169.39L11.96,175.39L12.15,172.75L12.16,172.86L12.32,175.09L12.45,168.75L12.91,171.61L12.92,171.71L13.63,175.49L13.67,167.92L13.67,169.68L13.68,169.64L14.04,176.16L14.43,174.02L14.44,173.99L14.54,170.46L14.99,176.61L15.19,173.98L15.2,173.92L15.51,171.75L15.72,175.73L15.95,173.61L15.96,173.73L16.14,176.38L16.55,170.1L16.71,174.44L16.72,174.37L16.76,176.83L16.99,171.04L17.47,173.99L17.48,174L17.53,176.84L17.92,172.29L18.23,175.74L18.24,175.77L18.42,171.77L18.81,177.22L18.99,175.72L19,175.71L19.33,167.33L19.41,176.86L19.75,173.81L19.76,173.61L19.89,164.71L20.18,177.67L20.51,176.74L20.52,176.68L20.95,172.89L21.14,177.36L21.27,175.23L21.28,175.2L21.36,177.16L21.59,172.87L22.03,176.31L22.04,176.37L22.33,170.77L22.64,177.33L22.79,174.88L22.8,174.94L22.85,177.1L22.93,172.84L23.55,175.58L23.56,175.42L23.66,172.22L23.7,177.24L24.31,174.69L24.32,174.74L24.38,168.71L24.66,177.65L25.07,175.56L25.08,175.64L25.29,172.58L25.82,177.68L25.83,176.32L25.84,176.23L26.32,170.65L26.52,178.72L26.59,175.23L26.6,175.23L27.27,177.81L27.33,174.08L27.35,177.09L27.36,177.09L27.73,178.45L28.07,173.99L28.11,175.59L28.12,175.7L28.13,178.2L28.62,174.24L28.87,175.93L28.88,175.99L29.23,171.59L29.5,177.84L29.63,176.2L29.64,176.25L29.72,174.05L29.9,178.77L30.39,175.22L30.4,175.17L30.44,178.92L31.1,172.34L31.15,175.65L31.16,175.59L31.18,172.17L31.32,178.63L31.91,174.83L31.92,174.79L32.04,173.97L32.5,178.08L32.67,176.75L32.68,176.7L32.94,178.39L33.3,174.23L33.43,177.06L33.44,177.14L33.81,178.73L34.09,173.68L34.19,175.62L34.2,175.71L34.45,178.9L34.66,174.5L34.95,175.7L34.96,175.74L35.43,178.91L35.58,173.81L35.71,177.04L35.72,177.11L35.82,178.28L36.32,174.12L36.47,177.62L36.48,177.49L36.6,178.24L36.85,174.98L37.23,176.52L37.24,176.62L37.44,173.59L37.62,178.34L37.99,176.4L38,176.36L38.53,175.14L38.65,178.35L38.75,176.81L38.76,176.74L39.24,178.96L39.51,174.84L39.51,176.2L39.52,176.27L39.76,178.48L39.88,174.91L40.27,176.18L40.28,176.26L40.29,174.23L40.39,178.36L41.03,177.38L41.04,177.46L41.55,174.5L41.61,178.87L41.79,176.85L41.8,176.74L41.84,175.63L41.93,179.33L42.55,176.91L42.56,176.97L42.64,179.1L43.01,174.65L43.31,177.99L43.32,177.98L43.46,169.48L43.69,179.33L44.07,174.97L44.08,174.86L44.09,173.2L44.63,178.64L44.83,177.24L44.84,177.22L45.03,178.75L45.14,172.93L45.59,176.64L45.6,176.78L45.71,175.47L46.08,178.78L46.35,177.18L46.36,177.16L46.72,179.1L47,175.03L47.11,177.93L47.12,177.79L47.36,179.36L47.45,175.15L47.87,177.57L47.88,177.57L48.2,179.08L48.4,171.39L48.63,176.7L48.64,176.79L48.94,174.54L49.33,179.01L49.39,176.37L49.4,176.36L49.92,179.65L50.01,175.38L50.15,176.43L50.16,176.43L50.34,175.93L50.55,179.01L50.91,177.99L50.92,177.97L51.23,175.52L51.53,178.98L51.67,177.32L51.68,177.21L51.71,175.74L52.13,179.64L52.43,177.97L52.44,178L52.87,179.24L53.16,175.38L53.19,177.37L53.2,177.31L53.37,171.39L53.89,179.09L53.95,177.13L53.96,177.11L54.17,174.06L54.29,179.27L54.71,175.73L54.72,175.87L54.76,173.54L54.99,179.2L55.47,176.26L55.48,176.22L55.82,179.94L56.19,175.36L56.23,175.87L56.24,175.96L56.28,175.64L56.8,179.36L56.99,176.09L57,176.2L57.16,175.67L57.58,179.2L57.75,177.89L57.76,177.85L58.19,176.15L58.3,179.79L58.51,177.14L58.52,177.06L58.85,179.76L58.98,175.53L59.27,178.43L59.28,178.51L59.61,179.55L59.71,175.61L60.03,178.37L60.04,178.31L60.28,175.6L60.58,179.33L60.79,177.81L60.8,177.66L60.82,179.75L60.97,175.85L61.55,178.12L61.56,178.13L61.85,175.29L62.03,179.17L62.31,177.11L62.32,177.06L62.35,176.33L62.74,179.29L63.07,177.52L63.08,177.53L63.14,179.65L63.72,175.37L63.83,177.18L63.84,177.15L64.06,175.98L64.18,179.58L64.59,178.23L64.6,178.28L64.83,179.79L65.35,175.79L65.35,176.91L65.36,176.99L65.52,176.13L65.54,179.61L66.11,178.38L66.12,178.26L66.54,179.76L66.67,175.59L66.87,179.09L66.88,178.98L66.99,179.54L67.56,174.89L67.63,177L67.64,176.94L67.99,179.8L68.01,175.8L68.39,178.06L68.4,177.96L68.44,175.3L68.98,179.44L69.15,177.75L69.16,177.86L69.49,179.94L69.68,167.46L69.91,177.04L69.92,176.99L69.94,176.23L70.2,179.77L70.67,178.13L70.68,178.39L70.69,179.49L71.08,176.15L71.43,176.93L71.44,176.96L71.76,179.38L72.16,175.85L72.19,176.79L72.2,176.66L72.35,169.45L72.59,179.57L72.95,177.57L72.96,177.66L73.18,180.41L73.69,175.51L73.71,177.47L73.72,177.36L74.05,180.34L74.31,171.58L74.47,178.35L74.48,178.38L74.59,179.8L75.23,176.22L75.23,176.49L75.24,176.39L75.8,179.93L75.9,175.52L75.99,178.11L76,178.21L76.23,175.82L76.69,180.08L76.75,178.27L76.76,178.37L76.81,175.46L76.95,180.01L77.51,178.79L77.52,178.91L77.82,175.24L77.89,179.66L78.27,178.79L78.28,178.84L78.73,180.16L79,175.76L79.03,177.53L79.04,177.57L79.51,172.45L79.79,179.7L79.79,179.27L79.8,179.26L79.95,180.19L80.16,176.63L80.55,178.14L80.56,177.97L80.99,180.22L81.05,176.39L81.31,178.76L81.32,178.86L81.62,180.46L81.89,175.7L82.07,178.39L82.08,178.53L82.24,175.52L82.36,179.95L82.83,177.73L82.84,177.92L82.93,175.44L83.11,180.02L83.59,177.94L83.6,178.07L83.99,176.64L84.3,179.87L84.35,179.18L84.36,179.2L84.43,179.83L84.89,176.29L85.11,176.99L85.12,176.81L85.12,176.35L85.15,180.07L85.87,177.98L85.88,178.1L86.12,172.99L86.53,179.62L86.63,176.2L86.64,176.08L86.67,175.34L87.39,180.13L87.39,179.96L87.4,180.02L87.69,172.97L87.92,180.65L88.15,178.2L88.16,177.97L88.52,176.66L88.82,180.2L88.91,179.24L88.92,179.26L88.92,180.21L89.02,175.61L89.67,178.4L89.68,178.48L89.91,176.78L90.43,180.83L90.43,179.49L90.44,179.45L90.59,180.22L90.99,176.37L91.19,178.42L91.2,178.41L91.25,179.82L91.53,176.53L91.95,178.51L91.96,178.38L92.35,180.14L92.48,176.7L92.71,177.83L92.72,177.87L93.12,176.57L93.27,180.26L93.47,177.7L93.48,177.56L93.8,180.03L94.15,176.57L94.23,177.76L94.24,177.71L94.81,180.03L94.96,176.13L94.99,178.41L95,178.35L95.26,180.08L95.72,171.02L95.75,177.18L95.76,177.34L96.06,179.84L96.13,173.15L96.51,178.83L96.52,178.77L96.83,179.9L97.13,176.15L97.27,178.26L97.28,178.17L97.88,175.51L98,180.26L98.03,178.74L98.04,178.75L98.14,175.91L98.47,181.63L98.79,179.22L98.8,179.11L98.82,180.18L98.9,176.95L99.55,179.3L99.56,179.34L99.81,168.22L100.17,180.44L100.31,178.36L100.32,178.24L100.59,180.71L100.67,174.29L101.07,177.28L101.08,177.3L101.16,180.46L101.5,175.91L101.83,179.07L101.84,179.07L102.02,180.38L102.57,160.41L102.59,174.32L102.6,174.9L102.95,180.5L103.08,174.66L103.35,178.5L103.36,178.6L103.42,176.69L103.96,180.3L104.11,179.06L104.12,179L104.35,176.04L104.73,180.41L104.87,178.38L104.88,178.37L105.05,180.8L105.12,176.76L105.63,178.27L105.64,178.07L105.67,176.68L105.89,180.52L106.39,177.61L106.4,177.68L106.48,176.63L107.03,180.27L107.15,178.26L107.16,178.16L107.59,180.23L107.69,176.63L107.91,179.64L107.92,179.66L108.05,180.42L108.43,176.25L108.67,178.14L108.68,178.14L108.8,176.33L109.27,180.19L109.43,178.32L109.44,178.62L109.49,179.78L109.83,176.17L110.19,177.95L110.2,178.11L110.62,175.3L110.87,180.15L110.95,178.43L110.96,178.57L110.98,180.92L111.53,176.51L111.71,178.48L111.72,178.42L112.12,180.99L112.38,175.97L112.47,177.3L112.48,177.31L112.82,179.75L113.05,176.75L113.23,178.9L113.24,178.84L113.28,176.24L113.31,181.02L113.99,179.51L114,179.64L114.01,180.89L114.48,176.48L114.75,179.33L114.76,179.42L115.36,180.75L115.38,176.47L115.51,179.8L115.52,179.77L115.52,180.96L116.1,172.17L116.27,179.59L116.28,179.46L116.38,179.81L116.9,176.53L117.03,179L117.04,178.86L117.22,180.58L117.39,176.91L117.79,178.85L117.8,178.85L118.03,176.44L118.08,180.54L118.55,179.23L118.56,179.25L118.56,180.38L118.75,176.66L119.31,179.27L119.32,179.09L119.7,176.19L119.78,180.8L120.07,179.11L120.08,179.17L120.27,180.34L120.6,176.5L120.83,178.81L120.84,178.92L120.87,174.81L121.2,180.98L121.59,179.21L121.6,179.24L122.1,180.43L122.3,177.15L122.35,179.26L122.36,179.27L122.39,177.05L122.47,180.27L123.11,178.61L123.12,178.56L123.21,180.09L123.36,176.54L123.87,178.36L123.88,178.44L124.35,180.58L124.46,176.07L124.63,177.45L124.64,177.38L125.06,177.1L125.36,180.81L125.39,179.06L125.4,178.99L125.75,176.69L125.82,180.27L126.15,178.54L126.16,178.54L126.2,180.41L126.82,176.93L126.91,177.72L126.92,177.69L127.33,176.72L127.36,180.74L127.67,179.17L127.68,179.16L127.84,180.62L127.87,168.76L128.43,178.88L128.44,178.72L128.56,175.33L129.14,180.57L129.19,179.64L129.2,179.6L129.76,176.68L129.83,180.85L129.95,178.08L129.96,178.15L130.22,177.32L130.36,180.94L130.71,178.02L130.72,178.01L130.86,180.66L131.17,177.1L131.47,178.93L131.48,179.06L131.6,177.17L132.09,180.95L132.23,178.38L132.24,178.38L132.51,180.53L132.73,176.82L132.99,178.41L133,178.56L133.34,180.43L133.65,176.87L133.75,179.08L133.76,178.96L134.37,180.9L134.42,176.41L134.51,178.72L134.52,178.67L134.81,176.77L134.99,180.7L135.27,178.83L135.28,178.84L135.31,180.94L135.8,177.21L136.03,179.65L136.04,179.54L136.39,180.69L136.66,176.99L136.79,178.71L136.8,178.7L137.35,176.95L137.51,180.86L137.55,178.15L137.56,178L137.69,176.08L138,180.67L138.31,179.04L138.32,178.93L138.37,180.49L138.74,177.41L139.07,177.81L139.08,177.82L139.18,180.54L139.22,173.27L139.83,179.1L139.84,178.98L139.93,177.32L140.06,180.89L140.59,178.74L140.6,178.74L140.92,180.71L140.99,176.92L141.35,177.89L141.36,177.97L141.36,177.01L141.47,180.87L142.11,178.78L142.12,178.72L142.27,180.71L142.6,173.45L142.87,178.95L142.88,178.91L143.09,176.82L143.31,180.29L143.63,178.63L143.64,178.62L143.97,180.81L144.2,177.68L144.39,178.47L144.4,178.64L144.52,176.93L144.72,180.75L145.15,178.03L145.16,177.98L145.36,177.15L145.74,180.51L145.91,179.05L145.92,179.03L145.99,176.55L146.46,180.69L146.67,178.79L146.68,178.72L147.25,180.8L147.35,176.83L147.43,178.06L147.44,177.99L147.5,180.69L147.61,167.65L148.19,178.6L148.2,178.69L148.25,176.69L148.7,180.97L148.95,178.43L148.96,178.48L149.04,181.16L149.07,177.28L149.71,179.12L149.72,178.91L150.07,176.95L150.27,181.82L150.47,179.59L150.48,179.79L150.86,176.77L151.19,181.42L151.23,179.55L151.24,179.58L151.27,177.05L151.55,181.45L151.99,179.79L152,179.82L152.13,177.13L152.43,180.79L152.75,179.06L152.76,179.33L152.82,180.85L153.03,177.4L153.51,178.47L153.52,178.45L153.53,176.82L153.69,180.36L154.27,178.23L154.28,178.11L154.59,176.73L154.86,180.69L155.03,178.59L155.04,178.61L155.07,180.77L155.63,176.44L155.79,179.35L155.8,179.27L156.15,180.82L156.3,176.49L156.55,177.35L156.56,177.46L156.6,181.08L156.75,177.41L157.31,179.41L157.32,179.36L157.7,176.92L157.93,180.79L158.07,179.43L158.08,179.29L158.36,176.78L158.49,180.87L158.83,179.11L158.84,179.11L159.06,180.97L159.42,177.45L159.59,179.15L159.6,179.2L160.12,177.03L160.22,181.35L160.35,178.83L160.36,178.82L160.68,180.39L160.86,175.29L161.11,178.51L161.12,178.62L161.36,176.94L161.73,180.92L161.87,179.54L161.88,179.49L162.28,181.31L162.32,176.96L162.63,178.71L162.64,178.56L162.84,181.81L163.11,174.9L163.39,178.07L163.4,178.09L163.72,177.22L164.02,180.96L164.15,178.16L164.16,178.33L164.25,180.58L164.8,177.13L164.91,177.69L164.92,177.68L165.17,176.66L165.58,181.07L165.67,179.18L165.68,179.09L166.33,180.89L166.4,176.73L166.43,178.64L166.44,178.68L166.58,176.82L166.76,180.94L167.19,178.53L167.2,178.5L167.24,176.51L167.52,180.68L167.95,179.68L167.96,179.74L168.04,181.15L168.45,177.4L168.71,179.07L168.72,179.22L168.79,180.43L169.21,173.65L169.47,179.4L169.48,179.41L169.52,177.25L169.65,180.84L170.23,178.18L170.24,178.22L170.34,180.93L170.94,177L170.99,179.23L171,179.22L171.16,181.15L171.7,176.84L171.75,179.06L171.76,179.07L171.99,181.93L172.46,177.07L172.51,179.28L172.52,179.25L173.07,181.13L173.11,176.39L173.27,178.55L173.28,178.48L173.44,177.15L173.92,181.33L174.03,180.02L174.04,180.16L174.29,180.96L174.34,176.59L174.79,179.14L174.8,179.16L175.02,177.26L175.15,180.47L175.55,178.8L175.56,178.91L175.68,177.27L176.21,180.9L176.31,179.09L176.32,179.07L176.5,177.37L176.91,180.71L177.07,178.9L177.08,178.93L177.13,177.21L177.38,181.28L177.83,179.54L177.84,179.51L178.15,181.38L178.31,177.02L178.59,178.58L178.6,178.57L178.91,176.79L179.21,181.08L179.35,180.31L179.36,180.22L179.36,180.76L179.75,177.61L180.11,179.87L180.12,179.86L180.36,181.23L180.54,177.21L180.87,179.96L180.88,180L180.9,181.4L181.26,176.84L181.63,178.82L181.64,178.66L182.19,181.03L182.21,176.35L182.39,178.58L182.4,178.57L182.86,181.04L183.03,177.13L183.15,177.9L183.16,178L183.19,181.11L183.86,177L183.91,178.02L183.92,178.01L183.95,176.07L184.59,180.77L184.67,179.61L184.68,179.61L184.78,181.25L185.43,177.42L185.43,178.4L185.44,178.54L185.6,176.09L185.87,181.07L186.19,179.9L186.2,179.97L186.5,181.45L186.53,176.99L186.95,179.59L186.96,179.89L187.27,180.98L187.47,173.05L187.71,177.41L187.72,177.53L187.72,177.21L188.32,181.22L188.47,179.77L188.48,179.55L188.82,177.32L189.12,181.27L189.23,179.72L189.24,179.54L189.47,177.71L189.53,180.7L189.99,178.67L190,178.81L190.27,181.49L190.45,177.3L190.75,178.89L190.76,178.87L190.89,177.33L191.24,180.94L191.51,178.72L191.52,178.76L192.18,181.72L192.25,177.74L192.27,180.05L192.28,180.13L192.3,180.69L192.84,172.88L193.03,178.93L193.04,178.91L193.23,171.1L193.41,181.57L193.79,179.26L193.8,179.18L194.08,177.81L194.27,180.7L194.55,178.8L194.56,178.81L194.85,181.05L195.14,177.68L195.31,179.6L195.32,179.64L195.43,170.83L195.99,180.71L196.07,178.21L196.08,178.17L196.24,175.06L196.49,181L196.83,179.73L196.84,179.53L197.02,177.69L197.57,181.64L197.59,179.36L197.6,179.37L197.9,181.64L198.17,177.1L198.35,178.76L198.36,178.7L198.65,181.02L198.74,177.83L199.11,178.93L199.12,178.86L199.12,177.68L199.52,180.84L199.87,178.64L199.88,178.45L200.44,180.97L200.61,177.16L200.63,178.21L200.64,178.12L200.65,177.11L201.35,181.01L201.39,179.64L201.4,179.79L201.73,181.56L202.05,177.11L202.15,180.22L202.16,180.22L202.64,177.05L202.85,180.87L202.91,179.48L202.92,179.31L202.96,177.67L203.27,181.46L203.67,178.62L203.68,178.71L203.74,177.01L203.91,180.93L204.43,178.89L204.44,179L204.91,176.06L204.99,181.73L205.19,179.47L205.2,179.55L205.38,180.92L205.89,177.01L205.95,179.22L205.96,179.19L206.19,180.58L206.57,177.31L206.71,178.32L206.72,178.54L206.99,181.44L207.34,177.29L207.47,178.03L207.48,178.08L207.89,176.2L208.03,180.82L208.23,178.38L208.24,178.54L208.29,177.29L208.76,181.05L208.99,178.46L209,178.47L209.18,170.84L209.24,181.33L209.75,179.71L209.76,179.86L209.81,177.96L210.04,181.43L210.51,179.93L210.52,180.02L210.72,177.19L211.07,181.28L211.27,179.51L211.28,179.59L211.91,181.36L212,176.77L212.03,178.4L212.04,178.54L212.06,181.23L212.09,177.27L212.79,179.22L212.8,179.06L213.1,177.16L213.33,181.06L213.55,179.19L213.56,179.37L213.69,177.44L214.15,181.06L214.31,179.45L214.32,179.48L214.86,177.03L214.92,180.93L215.07,179.52L215.08,179.54L215.45,173.6L215.71,180.77L215.83,178.56L215.84,178.54L215.89,177.46L216.33,181.27L216.59,179.18L216.6,179.09L216.87,181.29L216.9,177.56L217.35,179.67L217.36,179.58L217.41,180.85L217.49,177.81L218.11,179.44L218.12,179.34L218.31,181.23L218.62,177.73L218.87,180.09L218.88,180.2L218.88,181.34L218.99,178.08L219.63,178.22L219.64,178.16L219.76,177.33L220.35,180.94L220.39,178.89L220.4,179L220.52,170.8L221.01,181.14L221.15,179.08L221.16,179.05L221.37,178.15L221.56,181.18L221.91,178.57L221.92,178.52L221.99,177.33L222.66,180.94L222.67,179.2L222.68,179.13L222.89,181.16L223.19,173.17L223.43,179.34L223.44,179.22L223.49,180.47L223.87,177.58L224.19,179.47L224.2,179.46L224.75,177.69L224.95,181.19L224.95,180.61L224.96,180.59L225.18,176.91L225.56,181.61L225.71,179.13L225.72,179.11L225.98,181.48L226.42,177.61L226.47,180.83L226.48,180.71L226.66,181.41L226.81,173.15L227.23,179.41L227.24,179.52L227.66,177.85L227.91,180.93L227.99,179.24L228,179.18L228.15,175.51L228.72,182.34L228.75,179.11L228.76,179.25L228.82,181.19L229.47,177.64L229.51,178.93L229.52,179.04L229.59,181.14L229.85,177.32L230.27,179.29L230.28,179.26L230.52,181.86L230.84,177.5L231.03,179.01L231.04,178.91L231.36,177.92L231.74,181.32L231.79,179.55L231.8,179.49L231.81,181.17L232.53,177.54L232.55,179.82L232.56,179.84L232.75,177.68L233.11,181.43L233.31,179.38L233.32,179.64L233.73,176.47L234.05,181.46L234.07,179.05L234.08,178.98L234.74,178.01L234.81,181.32L234.83,179.98L234.84,179.95L234.88,177.14L235.4,181.97L235.59,179.11L235.6,178.95L235.98,181.43L236.35,177.95L236.35,178.96L236.36,179.02L236.4,176.39L236.89,181.99L237.11,178.36L237.12,178.32L237.3,177.76L237.43,181.5L237.87,179.9L237.88,179.89L238,177.12L238.39,181.37L238.63,179.89L238.64,179.89L238.93,181.06L239.01,177.83L239.39,179.21L239.4,179.02L239.54,181.02L240.08,177.34L240.15,178.91L240.16,178.88L240.42,177.17L240.68,181.44L240.91,179.1L240.92,179.11L241.03,181.31L241.08,177.34L241.67,179.19L241.68,179.34L242.04,177.73L242.33,181.28L242.43,179.44L242.44,179.21L243,180.85L243.07,176.23L243.19,180.59L243.2,180.55L243.79,177.35L243.88,181.57L243.95,179.21L243.96,179.35L244.04,181.61L244.69,176.63L244.71,178.04L244.72,178.02L244.87,181L245.11,175.24L245.47,179.9L245.48,179.97L245.92,177.5L246.03,181.17L246.23,179.69L246.24,179.7L246.35,177.82L246.64,181.51L246.99,180.06L247,180.09L247.64,181.39L247.75,172.81L247.75,173.02L247.76,172.93L247.76,171.92L248.05,180.98L248.51,178.71L248.52,178.77L248.58,177.2L248.9,181.33L249.27,179.06L249.28,178.93L249.68,180.79L249.95,177.72L250.03,179.62L250.04,179.58L250.28,177.93L250.71,181.57L250.79,179.28L250.8,179.28L250.88,181.36L250.91,178.39L251,178.92" style="vector-effect: non-scaling-stroke; fill: none; stroke: rgb(31, 119, 180); stroke-opacity: 1; stroke-width: 2px; opacity: 1;"/></g><g class="points"/><g class="text"/></g></g></g><g class="overplot"/><path class="xlines-above crisp" d="M0,0" style="fill: none;"/><path class="ylines-above crisp" d="M0,0" style="fill: none;"/><g class="overlines-above"/><g class="xaxislayer-above"><g class="xtick"><text text-anchor="middle" x="0" y="289" transform="translate(60,0)" style="font-family: 'Open Sans', verdana, arial, sans-serif; font-size: 12px; fill: rgb(68, 68, 68); fill-opacity: 1; white-space: pre;">0</text></g><g class="xtick"><text text-anchor="middle" x="0" y="289" transform="translate(179.85,0)" style="font-family: 'Open Sans', verdana, arial, sans-serif; font-size: 12px; fill: rgb(68, 68, 68); fill-opacity: 1; white-space: pre;">0.5M</text></g><g class="xtick"><text text-anchor="middle" x="0" y="289" transform="translate(299.71000000000004,0)" style="font-family: 'Open Sans', verdana, arial, sans-serif; font-size: 12px; fill: rgb(68, 68, 68); fill-opacity: 1; white-space: pre;">1M</text></g></g><g class="yaxislayer-above"><g class="ytick"><text text-anchor="end" x="59" y="4.199999999999999" transform="translate(0,265.2)" style="font-family: 'Open Sans', verdana, arial, sans-serif; font-size: 12px; fill: rgb(68, 68, 68); fill-opacity: 1; white-space: pre;">0</text></g><g class="ytick"><text text-anchor="end" x="59" y="4.199999999999999" transform="translate(0,227.23)" style="font-family: 'Open Sans', verdana, arial, sans-serif; font-size: 12px; fill: rgb(68, 68, 68); fill-opacity: 1; white-space: pre;">0.5</text></g><g class="ytick"><text text-anchor="end" x="59" y="4.199999999999999" transform="translate(0,189.27)" style="font-family: 'Open Sans', verdana, arial, sans-serif; font-size: 12px; fill: rgb(68, 68, 68); fill-opacity: 1; white-space: pre;">1</text></g><g class="ytick"><text text-anchor="end" x="59" y="4.199999999999999" transform="translate(0,151.3)" style="font-family: 'Open Sans', verdana, arial, sans-serif; font-size: 12px; fill: rgb(68, 68, 68); fill-opacity: 1; white-space: pre;">1.5</text></g><g class="ytick"><text text-anchor="end" x="59" y="4.199999999999999" transform="translate(0,113.33)" style="font-family: 'Open Sans', verdana, arial, sans-serif; font-size: 12px; fill: rgb(68, 68, 68); fill-opacity: 1; white-space: pre;">2</text></g><g class="ytick"><text text-anchor="end" x="59" y="4.199999999999999" transform="translate(0,75.37)" style="font-family: 'Open Sans', verdana, arial, sans-serif; font-size: 12px; fill: rgb(68, 68, 68); fill-opacity: 1; white-space: pre;">2.5</text></g></g><g class="overaxes-above"/></g></g><g class="polarlayer"/><g class="ternarylayer"/><g class="geolayer"/><g class="funnelarealayer"/><g class="pielayer"/><g class="treemaplayer"/><g class="sunburstlayer"/><g class="glimages"/><defs id="topdefs-fcd11c"><g class="clips"/></defs><g class="layer-above"><g class="imagelayer"/><g class="shapelayer"/></g><g class="infolayer"><g class="g-gtitle"><text class="gtitle" x="185.5" y="30" text-anchor="middle" dy="0em" style="font-family: 'Open Sans', verdana, arial, sans-serif; font-size: 17px; fill: rgb(68, 68, 68); opacity: 1; font-weight: normal; white-space: pre;">Training loss</text></g><g class="g-xtitle"><text class="xtitle" x="185.5" y="328" text-anchor="middle" style="font-family: 'Open Sans', verdana, arial, sans-serif; font-size: 14px; fill: rgb(68, 68, 68); opacity: 1; font-weight: normal; white-space: pre;">Iterations</text></g><g class="g-ytitle"><text class="ytitle" transform="rotate(-90,22,168)" x="22" y="168" text-anchor="middle" style="font-family: 'Open Sans', verdana, arial, sans-serif; font-size: 14px; fill: rgb(68, 68, 68); opacity: 1; font-weight: normal; white-space: pre;">Loss</text></g></g></svg>